<?xml version="1.0" standalone="no"?>
<!DOCTYPE svg PUBLIC "-//W3C//DTD SVG 20010904//EN"
 "http://www.w3.org/TR/2001/REC-SVG-20010904/DTD/svg10.dtd">
<svg version="1.0" xmlns="http://www.w3.org/2000/svg"
 width="666.000000pt" height="666.000000pt" viewBox="0 0 666.000000 666.000000"
 preserveAspectRatio="xMidYMid meet">
<metadata>
Created by potrace 1.14, written by Peter Selinger 2001-2017
</metadata>
<g transform="translate(0.000000,666.000000) scale(0.100000,-0.100000)"
fill="#000000" stroke="none">
<path d="M2371 5013 c-1 -43 -9 -109 -16 -125 -7 -17 3 -23 28 -19 4 0 7 -4 7
-10 0 -6 6 -9 13 -7 12 5 18 58 6 58 -4 0 -5 10 -1 22 4 16 2 19 -9 13 -12 -8
-12 -6 0 8 9 11 10 17 2 17 -6 0 -10 3 -10 8 1 4 1 17 0 30 -1 26 -20 30 -20
5z"/>
<path d="M3450 4893 c0 -4 -30 -9 -67 -11 -37 -1 -69 -5 -72 -9 -3 -5 -19 -8
-36 -7 -16 0 -35 -4 -41 -8 -7 -5 -16 -8 -20 -7 -5 2 -27 -3 -49 -9 -22 -6
-44 -12 -50 -13 -5 0 -19 -6 -30 -12 -11 -6 -24 -12 -30 -13 -5 -1 -26 -9 -46
-18 -20 -8 -40 -12 -44 -8 -5 4 -5 2 -2 -4 4 -7 -12 -19 -38 -30 -25 -10 -45
-22 -45 -26 0 -4 -7 -8 -15 -8 -8 0 -23 -9 -32 -19 -9 -11 -22 -17 -30 -14 -8
3 -13 0 -11 -8 2 -8 -7 -15 -20 -17 -12 -2 -20 -8 -17 -13 4 -5 2 -9 -2 -9 -5
0 -26 -16 -48 -35 -22 -19 -44 -35 -48 -35 -5 0 -5 -4 -2 -10 3 -5 1 -10 -5
-10 -11 0 -43 -33 -81 -83 -11 -15 -25 -25 -30 -21 -5 3 -9 2 -8 -3 4 -16 -13
-43 -23 -37 -6 4 -9 1 -6 -6 2 -8 -3 -22 -11 -31 -32 -35 -41 -48 -41 -59 0
-5 -4 -10 -10 -10 -5 0 -10 -9 -10 -20 0 -11 -4 -20 -9 -20 -5 0 -15 -16 -22
-35 -7 -19 -17 -35 -22 -35 -4 0 -6 -4 -2 -9 3 -5 -1 -15 -8 -23 -8 -7 -12
-19 -9 -26 2 -6 -1 -12 -8 -12 -6 0 -9 -4 -5 -9 3 -5 1 -12 -5 -16 -6 -4 -8
-11 -5 -16 4 -5 2 -9 -2 -9 -5 0 -9 -8 -10 -17 -1 -10 -7 -31 -14 -48 -7 -16
-12 -40 -12 -52 0 -13 -4 -23 -10 -23 -6 0 -8 -3 -4 -6 3 -3 2 -17 -4 -31 -6
-17 -6 -22 2 -17 7 4 7 -2 -1 -16 -7 -13 -14 -52 -16 -87 -2 -36 -7 -69 -10
-74 -3 -5 0 -9 7 -9 7 0 8 -4 2 -12 -9 -14 -9 -38 2 -153 4 -38 7 -77 7 -85 0
-8 4 -19 8 -25 4 -5 6 -20 5 -32 -1 -13 2 -23 5 -23 4 0 8 -11 8 -24 0 -13 6
-38 15 -54 11 -22 12 -32 3 -36 -7 -3 -7 -5 2 -5 6 -1 12 -8 12 -16 0 -8 4
-15 10 -15 5 0 7 -6 4 -14 -3 -8 0 -17 5 -21 6 -3 9 -11 6 -16 -4 -5 -1 -9 4
-9 6 0 11 -9 11 -21 0 -11 7 -27 15 -36 8 -8 13 -18 10 -23 -3 -4 2 -11 11
-14 13 -5 13 -8 2 -19 -7 -7 -21 -16 -30 -20 -10 -3 -18 -11 -18 -17 0 -6 -4
-9 -9 -6 -5 3 -20 -5 -35 -19 -14 -13 -26 -22 -26 -20 0 5 -112 -64 -120 -74
-3 -4 -17 -12 -32 -18 -16 -7 -28 -17 -28 -23 0 -6 -5 -8 -10 -5 -6 3 -13 0
-16 -9 -3 -8 -11 -13 -19 -10 -7 3 -15 -2 -18 -10 -4 -9 -13 -16 -22 -16 -8 0
-15 -4 -15 -9 0 -5 -26 -15 -57 -21 -81 -16 -220 -64 -309 -106 -67 -31 -73
-37 -64 -54 12 -23 8 -25 -20 -8 -17 11 -28 8 -75 -17 -53 -28 -55 -31 -35
-44 31 -21 24 -28 -25 -24 -36 4 -54 0 -90 -21 -25 -15 -45 -30 -45 -34 0 -4
56 -7 125 -7 69 0 125 -3 125 -6 0 -7 -8 -26 -64 -157 l-36 -83 31 18 c50 29
79 60 85 93 8 36 24 50 24 21 0 -32 13 -31 63 5 35 26 47 41 47 60 0 22 2 24
15 14 12 -10 20 -8 42 10 68 53 162 144 157 151 -3 5 1 9 9 9 8 0 22 11 30 24
9 13 22 29 29 37 8 8 23 29 33 47 11 17 25 32 32 32 8 0 16 7 19 15 4 8 10 12
15 9 5 -3 9 0 9 7 0 7 3 10 6 6 3 -3 15 3 27 13 11 11 23 17 27 15 5 -3 10 2
14 10 3 8 12 15 21 15 8 0 15 5 15 12 0 6 3 9 6 5 4 -3 13 1 21 9 8 8 19 11
25 8 6 -4 8 -2 4 4 -3 6 3 13 14 17 11 3 20 11 20 16 0 5 6 9 13 9 8 0 24 9
37 20 12 11 27 17 33 13 5 -3 7 -1 3 5 -6 10 30 28 47 24 4 -1 7 5 7 13 0 29
26 14 68 -40 23 -30 42 -57 42 -60 0 -3 43 -48 95 -100 52 -52 95 -92 95 -88
0 3 8 -3 18 -14 9 -11 25 -22 35 -26 9 -3 17 -11 17 -17 0 -6 5 -8 10 -5 6 3
10 2 10 -3 0 -5 14 -15 30 -22 17 -7 30 -17 30 -22 0 -5 5 -6 10 -3 6 3 10 2
10 -4 0 -9 26 -21 44 -20 5 0 12 -3 15 -8 9 -12 51 -34 75 -39 11 -2 22 -8 24
-14 2 -6 8 -8 13 -4 5 3 15 2 22 -3 6 -4 18 -8 26 -10 8 -1 17 -6 20 -10 3 -5
16 -9 29 -10 12 0 24 -2 27 -3 3 -1 10 -4 15 -5 6 -1 12 -4 15 -5 3 -1 10 -4
15 -5 6 -1 11 -3 13 -5 1 -1 16 -3 32 -5 154 -19 245 -22 360 -10 39 3 78 6
88 6 9 0 16 3 13 7 -2 4 10 8 27 8 18 1 43 5 57 8 14 4 30 8 37 10 7 1 16 5
19 9 4 4 17 7 29 7 11 0 25 4 30 9 12 11 97 42 109 41 5 -1 13 5 18 14 5 9 17
16 27 16 11 0 21 7 25 15 3 8 9 14 13 13 11 -4 73 35 73 45 0 4 4 6 8 3 5 -3
23 8 41 24 18 17 36 30 42 30 5 0 14 9 21 20 7 11 19 20 26 20 7 0 10 5 7 10
-3 6 -2 10 3 10 5 0 28 18 50 40 22 22 38 40 37 40 -2 0 9 13 23 28 38 40 62
71 62 81 0 4 9 16 20 26 11 10 20 24 20 31 0 7 7 17 16 22 9 5 15 11 14 13 -5
11 35 77 43 72 6 -3 7 -1 3 5 -3 6 3 33 15 59 37 84 56 136 64 181 2 9 4 17 5
17 1 0 4 16 7 35 2 19 9 41 15 47 7 9 7 13 -1 13 -8 0 -9 6 -2 18 5 9 9 28 10
42 4 68 7 86 15 99 6 10 6 12 -2 7 -7 -4 -12 -3 -12 3 0 5 5 13 10 16 6 4 7
13 2 23 -5 9 -8 37 -7 62 0 25 -2 55 -7 67 -4 13 -3 25 3 29 7 4 6 10 -1 19
-7 8 -9 19 -5 25 3 5 2 10 -2 10 -8 0 -14 30 -16 83 -1 9 -5 17 -10 17 -4 0
-7 6 -6 13 2 13 -7 41 -22 71 -8 14 -8 16 3 10 10 -6 11 -5 1 8 -7 8 -9 19 -5
23 4 5 1 5 -5 1 -8 -4 -13 -1 -14 8 -1 9 -3 19 -4 24 -2 4 -6 17 -10 30 -4 12
-11 22 -16 22 -5 0 -6 7 -3 15 4 8 1 15 -6 15 -6 0 -8 5 -5 10 3 6 1 10 -4 10
-6 0 -11 6 -11 14 0 7 -7 19 -15 26 -8 7 -12 16 -9 21 3 5 0 9 -5 9 -6 0 -11
7 -11 15 0 8 -5 15 -12 15 -6 0 -9 3 -5 6 3 3 -4 16 -15 29 -11 13 -19 26 -19
29 1 4 -10 18 -24 32 -14 14 -25 29 -25 35 0 6 -4 7 -10 4 -5 -3 -10 1 -10 9
0 9 -4 16 -8 16 -5 0 -15 11 -22 25 -7 13 -17 22 -22 19 -4 -3 -8 2 -8 10 0 9
-6 15 -12 13 -7 -1 -12 4 -11 11 2 6 -3 12 -10 12 -7 0 -18 9 -25 21 -7 12
-16 19 -19 16 -3 -3 -16 6 -29 20 -13 14 -24 22 -24 18 0 -4 -8 2 -19 13 -10
12 -23 22 -30 22 -6 0 -11 5 -11 10 0 6 -7 10 -15 10 -8 0 -15 3 -15 8 0 8
-81 47 -92 44 -5 -1 -8 5 -8 14 0 8 -4 13 -9 9 -5 -3 -12 -1 -16 4 -3 6 -13 7
-22 4 -10 -4 -14 -2 -10 4 4 7 -7 13 -28 17 -20 4 -33 11 -30 16 3 6 -1 7 -10
4 -8 -4 -21 -1 -28 5 -8 6 -22 12 -33 14 -10 1 -24 6 -30 10 -6 3 -25 8 -43 9
-17 1 -31 6 -31 11 0 4 -5 5 -10 2 -6 -4 -17 -1 -25 5 -10 8 -15 9 -15 2 0
-13 -31 -4 -41 11 -4 5 -15 5 -27 -2 -11 -6 -23 -8 -26 -3 -2 4 -42 9 -87 11
-46 1 -87 5 -91 7 -4 3 -8 2 -8 -3z m135 -125 c36 -1 69 -6 71 -10 3 -5 12 -4
20 3 11 9 14 9 14 -1 0 -7 8 -10 20 -7 11 3 20 1 20 -5 0 -5 5 -6 10 -3 6 4
18 1 27 -7 14 -11 16 -11 8 1 -6 11 -5 12 6 5 14 -9 34 -14 57 -16 6 -1 12 -5
12 -10 0 -5 5 -6 10 -3 6 3 10 1 10 -5 0 -6 4 -8 10 -5 5 3 28 -3 52 -15 23
-11 46 -20 50 -20 5 0 26 -11 47 -24 21 -14 42 -22 47 -18 4 4 4 1 0 -5 -6
-12 5 -18 27 -14 4 0 7 -3 7 -9 0 -5 5 -10 10 -10 6 0 20 -9 32 -20 12 -10 25
-17 30 -14 4 3 8 -2 8 -10 0 -9 5 -16 10 -16 6 0 24 -12 41 -27 53 -47 111
-103 106 -103 -3 0 9 -15 26 -34 53 -56 58 -64 46 -72 -13 -8 -50 36 -43 48 3
4 -2 8 -10 8 -9 0 -16 3 -16 8 0 14 -88 100 -96 94 -4 -4 -4 -2 -1 4 3 6 -5
17 -18 24 -14 7 -25 17 -25 22 0 4 -4 8 -10 8 -5 0 -19 8 -29 18 -36 32 -50
42 -59 42 -5 0 -15 7 -22 15 -7 8 -16 15 -20 15 -11 0 -51 -37 -51 -47 1 -4
-4 -15 -11 -24 -7 -8 -14 -22 -16 -29 -2 -7 -12 -26 -23 -42 -11 -15 -17 -28
-12 -28 4 0 0 -5 -10 -11 -10 -6 -21 -8 -24 -5 -7 6 19 66 29 66 5 0 8 3 7 8
-2 15 14 52 23 52 5 0 7 4 4 9 -3 5 1 14 9 21 8 7 12 16 9 21 -3 5 0 9 5 9 25
0 8 27 -24 40 -19 8 -35 18 -35 22 0 5 -4 7 -9 3 -5 -3 -16 1 -24 9 -8 8 -17
13 -20 10 -3 -3 -22 2 -43 11 -22 9 -41 17 -44 18 -3 1 -4 6 -2 10 1 5 -3 5
-10 0 -17 -10 -58 -11 -52 -1 5 7 -12 10 -73 11 -13 1 -23 4 -23 8 0 4 -21 6
-47 5 -27 -1 -58 2 -70 6 -14 5 -23 4 -23 -3 0 -6 -5 -7 -11 -3 -8 4 -9 0 -4
-15 7 -23 -1 -26 -25 -11 -11 7 -11 10 -2 10 7 0 10 5 7 10 -4 6 -31 8 -68 5
-34 -3 -77 -7 -94 -8 -18 -1 -33 -6 -33 -11 0 -4 -9 -6 -20 -3 -11 3 -23 1
-26 -4 -3 -5 -14 -9 -25 -9 -10 0 -19 -3 -19 -7 0 -5 -14 -9 -32 -10 -17 -1
-35 -7 -38 -14 -4 -6 -10 -9 -13 -7 -8 5 -97 -34 -97 -44 0 -4 -3 -7 -7 -7
-34 6 -40 -23 -11 -55 10 -10 15 -23 12 -28 -3 -4 0 -8 6 -8 6 0 8 -4 5 -10
-3 -5 -1 -10 4 -10 6 0 11 -6 11 -14 0 -9 -7 -12 -20 -9 -11 3 -20 12 -20 19
0 8 -5 14 -11 14 -5 0 -8 4 -4 9 3 5 -2 16 -10 24 -8 9 -15 20 -15 25 0 16
-35 9 -48 -10 -7 -10 -23 -18 -34 -18 -12 0 -18 -3 -15 -7 4 -3 -10 -18 -31
-32 -21 -14 -64 -52 -95 -84 -36 -37 -61 -56 -69 -51 -10 5 -10 4 -2 -5 9 -10
4 -21 -22 -47 -19 -19 -32 -34 -28 -34 4 0 0 -8 -9 -18 -10 -10 -14 -22 -10
-27 5 -4 2 -5 -4 -1 -8 4 -13 1 -13 -8 0 -9 -5 -16 -10 -16 -6 0 0 -11 12 -24
13 -13 25 -23 28 -23 13 2 50 -16 50 -24 0 -6 5 -7 10 -4 6 3 10 1 10 -4 0 -6
6 -11 13 -11 7 0 22 -8 33 -18 10 -10 27 -21 37 -25 29 -11 20 -30 -10 -22
-15 3 -30 10 -33 13 -5 7 -29 21 -72 44 -13 6 -30 15 -38 20 -8 5 -23 11 -32
14 -10 4 -18 11 -18 16 0 18 -16 -1 -39 -46 -12 -26 -26 -44 -30 -42 -3 3 -6
-8 -5 -22 0 -15 -5 -32 -12 -39 -7 -7 -10 -22 -7 -34 4 -14 2 -20 -4 -16 -7 4
-14 -8 -18 -31 -4 -20 -9 -48 -12 -62 -3 -14 -6 -33 -7 -42 0 -10 -5 -18 -11
-18 -5 0 -3 -5 5 -10 8 -5 10 -10 4 -10 -6 0 -10 -10 -10 -22 1 -13 -2 -31 -6
-40 -6 -12 -5 -18 2 -18 6 0 9 -4 6 -8 -12 -19 -13 -59 -3 -60 7 0 28 -2 48
-3 23 -1 36 -7 36 -16 0 -8 -6 -12 -14 -9 -7 3 -13 0 -13 -6 0 -7 -5 -6 -15 2
-10 9 -15 9 -15 1 0 -6 -3 -10 -7 -10 -26 4 -33 -2 -24 -19 6 -11 6 -24 0 -35
-7 -12 -6 -17 2 -17 9 0 9 -3 0 -14 -7 -8 -8 -17 -3 -20 5 -3 10 -18 11 -33 4
-64 6 -78 12 -83 13 -10 14 -63 2 -67 -8 -3 -14 4 -14 16 -2 28 -3 34 -10 46
-4 6 -5 18 -4 28 2 9 0 17 -4 17 -4 0 -6 14 -5 30 1 17 -1 30 -5 30 -4 0 -7
41 -6 90 0 53 -4 90 -10 90 -6 0 -6 3 1 8 5 4 11 27 11 52 1 25 4 56 7 70 3
14 7 37 8 53 1 15 5 27 9 27 4 0 6 8 4 18 -1 9 3 32 11 50 7 17 11 32 8 32 -3
0 -2 6 3 13 4 6 8 14 9 17 0 3 4 14 8 25 4 11 12 32 18 47 6 15 14 25 19 22 5
-3 6 2 3 10 -3 9 1 23 10 32 9 8 14 19 11 24 -3 5 0 12 5 15 6 4 15 18 21 32
5 13 13 21 19 18 5 -3 7 0 5 7 -3 8 4 23 15 35 11 12 20 26 20 30 0 5 8 16 18
25 9 9 37 39 61 67 25 27 48 48 53 45 4 -3 5 3 1 13 -3 10 -3 15 1 11 4 -3 20
7 35 23 16 16 33 29 40 29 6 0 11 5 11 10 0 6 7 10 16 10 8 0 13 3 11 8 -4 6
18 34 25 32 10 -3 67 28 61 33 -3 4 -1 8 5 8 7 1 16 2 22 3 5 0 19 9 30 19 12
10 25 15 31 12 5 -4 12 1 15 10 4 9 12 14 20 11 7 -3 18 2 24 9 7 8 16 13 20
10 4 -3 20 2 36 10 15 7 31 12 36 9 4 -3 8 0 8 6 0 6 3 9 8 7 4 -3 18 0 32 6
14 5 43 12 65 14 22 2 45 9 51 14 8 7 15 6 19 -1 4 -6 12 -7 18 -2 7 4 39 9
72 11 33 1 61 4 64 6 2 3 7 2 12 0 4 -3 38 -6 74 -7z m-92 -75 c-5 -2 -8 -15
-5 -28 2 -14 0 -25 -4 -25 -5 0 -10 16 -11 34 -1 29 1 34 15 29 9 -4 11 -8 5
-10z m952 -413 c-3 -6 0 -13 9 -16 8 -3 12 -12 9 -20 -3 -8 0 -14 7 -14 6 0 8
-4 5 -10 -3 -5 1 -10 10 -10 9 0 13 -4 10 -10 -3 -5 -19 -10 -34 -10 -16 0
-34 -7 -41 -15 -7 -8 -19 -15 -27 -15 -8 0 -11 -5 -7 -12 4 -7 4 -10 -1 -6 -4
4 -13 4 -19 -1 -11 -9 -66 -41 -115 -67 -13 -7 -27 -17 -30 -23 -4 -6 -12 -7
-21 -1 -12 8 -10 14 15 34 16 13 33 22 37 19 5 -2 8 0 8 5 0 5 14 15 30 22 17
7 30 16 30 21 0 5 3 8 8 7 4 -2 34 15 66 37 32 21 54 41 48 43 -7 2 -12 10
-12 18 0 8 -5 14 -11 14 -5 0 -7 5 -4 10 3 6 13 10 21 10 8 0 12 -5 9 -10z
m70 -120 c4 -16 11 -30 17 -30 6 0 8 -3 5 -6 -3 -4 -1 -16 5 -28 7 -11 13 -23
13 -26 1 -3 8 -18 15 -35 7 -16 14 -34 15 -40 1 -5 3 -12 4 -15 4 -7 12 -42
15 -60 1 -9 5 -20 8 -25 3 -6 4 -18 3 -27 -2 -10 0 -18 4 -18 4 0 8 -17 10
-37 1 -21 4 -53 5 -71 2 -18 6 -35 9 -39 4 -3 2 -12 -4 -20 -9 -10 -8 -13 1
-13 10 0 10 -3 0 -15 -7 -8 -8 -15 -3 -15 5 0 9 -9 9 -20 0 -11 -5 -20 -10
-20 -6 0 -5 -5 2 -12 6 -6 8 -18 3 -27 -4 -9 -9 -34 -10 -56 -5 -72 -7 -80
-14 -92 -5 -7 -6 -17 -3 -21 3 -5 -1 -20 -8 -33 -7 -14 -12 -33 -10 -42 1 -9
-1 -17 -5 -17 -4 0 -8 -6 -9 -12 -2 -23 -8 -43 -20 -65 -7 -13 -10 -23 -6 -23
3 0 1 -6 -5 -13 -6 -8 -7 -18 -3 -22 4 -5 1 -5 -5 -1 -8 5 -13 1 -13 -9 0 -9
-9 -29 -20 -45 -11 -15 -17 -29 -14 -32 2 -3 -2 -11 -11 -18 -8 -7 -15 -19
-15 -26 0 -8 -4 -14 -10 -14 -5 0 -10 -6 -10 -14 0 -8 -4 -16 -8 -18 -4 -1
-23 -24 -41 -50 -19 -26 -38 -45 -43 -42 -5 3 -7 1 -6 -4 4 -15 -123 -136
-187 -178 -30 -20 -55 -41 -55 -45 0 -5 -3 -8 -7 -7 -16 3 -132 -60 -125 -67
4 -5 1 -5 -6 -1 -7 4 -19 2 -27 -4 -8 -6 -19 -9 -25 -5 -5 3 -10 2 -10 -3 0
-9 -47 -27 -62 -24 -5 1 -8 -2 -8 -7 0 -6 -9 -8 -20 -6 -11 2 -20 0 -20 -4 0
-8 -3 -9 -57 -12 -18 -1 -30 -5 -28 -10 3 -4 -6 -6 -20 -4 -14 1 -28 -2 -31
-7 -4 -6 -10 -5 -15 3 -5 8 -9 9 -9 4 0 -6 -12 -10 -27 -9 -16 1 -34 -4 -42
-10 -11 -8 -13 -8 -8 1 6 9 -1 11 -25 7 -62 -9 -87 -10 -82 -3 2 4 -3 10 -12
13 -8 3 -12 2 -9 -4 3 -6 -11 -7 -37 -4 -24 3 -53 6 -65 7 -13 0 -23 4 -23 8
0 5 -9 6 -20 4 -11 -2 -22 1 -26 7 -4 7 -9 6 -14 -2 -4 -7 -10 -8 -13 -3 -10
15 9 36 24 27 12 -7 36 -12 87 -16 6 -1 12 -6 12 -12 0 -7 3 -7 8 -1 12 17 42
14 42 -4 0 -11 3 -12 8 -4 4 7 24 10 45 9 20 -2 37 0 38 3 6 39 2 141 -6 141
-6 0 -6 3 1 8 6 4 10 27 9 52 -2 25 1 54 5 65 7 18 9 18 14 3 14 -41 15 -48 6
-48 -5 0 -5 -12 0 -29 5 -19 4 -33 -3 -40 -6 -6 -7 -11 -1 -11 5 0 9 -28 8
-62 -1 -73 7 -88 44 -82 15 2 45 6 67 7 22 1 45 5 50 8 6 4 24 6 42 5 17 0 29
1 27 3 -5 5 91 33 118 34 9 1 14 5 12 9 -3 4 1 8 9 8 8 0 41 13 73 30 32 16
64 30 71 30 11 0 6 39 -6 50 -14 12 -40 68 -34 74 3 3 0 6 -8 6 -8 0 -23 20
-33 43 -11 23 -22 44 -25 47 -12 10 -31 50 -31 65 0 23 15 18 30 -10 7 -14 17
-25 22 -25 5 0 6 -4 3 -10 -3 -5 -1 -10 5 -10 6 0 8 -4 5 -10 -3 -5 -1 -10 4
-10 6 0 11 -5 11 -11 0 -6 7 -17 15 -26 8 -8 13 -18 10 -23 -3 -4 2 -11 11
-14 8 -3 12 -10 9 -16 -3 -5 -2 -10 3 -10 5 0 15 -12 23 -27 23 -46 35 -55 49
-37 7 8 15 12 17 10 3 -2 13 3 23 12 36 33 49 42 60 42 5 0 10 7 10 17 0 9 3
13 7 10 3 -4 17 6 31 21 14 15 28 26 31 25 3 0 12 5 19 13 7 8 10 14 6 14 -4
0 7 14 25 30 17 17 31 33 31 36 0 3 6 11 13 18 6 8 19 24 27 36 8 12 20 28 25
34 22 25 48 82 29 63 -3 -3 -15 3 -27 13 -11 11 -24 17 -29 14 -4 -3 -8 0 -8
5 0 6 -7 11 -15 11 -8 0 -15 4 -15 8 0 4 -16 14 -35 21 -19 7 -35 16 -35 21 0
4 -11 11 -25 14 -14 4 -25 11 -25 17 0 6 -4 7 -10 4 -5 -3 -10 -1 -10 5 0 6
-4 8 -10 5 -5 -3 -10 -4 -10 -1 0 2 -3 11 -6 19 -7 20 30 12 68 -15 14 -10 31
-18 37 -18 6 0 11 -5 11 -12 0 -6 3 -9 6 -5 3 3 24 -5 45 -19 21 -13 43 -24
49 -24 5 0 10 -5 10 -11 0 -5 5 -7 10 -4 6 3 13 -1 16 -10 5 -12 9 -13 20 -4
8 6 14 8 15 3 0 -10 16 27 17 40 0 5 4 12 9 15 9 7 34 69 36 89 0 6 3 12 7 12
4 0 7 6 8 13 1 14 6 37 21 85 5 17 7 32 4 32 -3 0 0 7 8 16 10 13 10 17 0 24
-9 5 -10 10 -2 14 6 4 11 25 11 47 0 24 5 39 13 40 8 0 8 2 1 5 -7 3 -10 14
-7 24 3 11 3 30 0 43 -5 19 -13 22 -46 22 -22 0 -37 -3 -35 -7 3 -4 -7 -3 -23
3 -15 6 -28 11 -29 12 0 1 -8 -4 -17 -12 -13 -10 -17 -10 -17 -1 0 8 -6 9 -17
5 -23 -10 -33 -10 -62 -1 -16 6 -21 5 -17 -3 5 -8 0 -8 -16 -3 -13 5 -33 7
-46 6 -12 -1 -25 3 -29 9 -4 6 -1 7 7 2 9 -6 11 -4 6 4 -6 9 -13 8 -27 -5 -10
-9 -19 -15 -20 -13 0 2 -2 12 -4 22 -2 9 0 17 5 17 4 0 5 15 1 33 -4 17 -7 42
-6 55 1 12 -2 22 -6 22 -5 0 -6 7 -3 15 4 9 0 15 -7 15 -10 0 -11 2 -2 8 12 8
12 36 1 48 -4 3 -4 12 -1 20 3 8 -1 14 -8 14 -8 0 -5 6 7 16 10 8 13 13 7 9
-15 -7 -18 1 -4 10 6 3 16 -9 24 -27 34 -78 37 -89 26 -83 -6 4 -4 -5 3 -21 8
-16 13 -41 12 -56 -2 -16 2 -28 7 -28 6 0 6 -8 -1 -20 -7 -14 -7 -20 0 -20 5
0 10 -6 10 -12 0 -9 19 -13 60 -13 33 0 60 4 60 9 0 5 6 3 13 -3 8 -6 17 -8
20 -4 4 3 42 7 84 8 43 1 80 3 83 4 9 2 5 71 -5 71 -5 0 -4 5 2 11 8 8 8 20 2
36 -5 14 -7 29 -3 34 3 5 0 9 -6 9 -6 0 -9 4 -6 9 4 5 2 20 -3 34 -7 17 -6 28
2 36 9 10 9 12 -3 9 -10 -2 -15 4 -14 20 1 12 -3 22 -8 22 -6 0 -8 7 -4 15 3
8 2 15 -3 15 -10 0 -24 38 -22 58 1 6 -4 12 -10 12 -7 0 -10 3 -6 6 3 3 -3 22
-14 41 -11 20 -18 42 -15 49 3 9 -1 11 -12 8 -14 -5 -15 -4 -2 5 23 16 28 14
35 -19z m-2065 -865 c0 -14 4 -25 8 -25 4 0 9 -12 10 -27 1 -15 6 -29 11 -32
5 -3 11 -15 13 -26 1 -11 11 -29 21 -39 18 -21 22 -42 10 -49 -5 -3 -14 1 -21
9 -7 8 -10 14 -7 14 3 0 -8 25 -25 55 -17 30 -28 55 -24 55 4 0 2 6 -4 13 -9
11 -16 49 -13 70 3 19 21 4 21 -18z m142 -285 c5 0 7 -4 4 -8 -3 -5 4 -15 15
-22 10 -8 19 -20 19 -27 0 -7 5 -13 10 -13 6 0 10 -7 10 -16 0 -8 4 -13 8 -10
5 3 15 -6 22 -19 7 -13 17 -22 22 -19 5 3 8 2 7 -3 -3 -19 2 -34 9 -29 5 3 15
-4 22 -15 8 -10 20 -19 28 -19 7 0 10 -4 7 -10 -3 -5 -2 -10 3 -10 5 0 25 -13
43 -30 19 -16 42 -32 52 -36 9 -3 17 -10 17 -15 0 -6 4 -8 9 -4 5 3 12 1 16
-5 14 -23 44 -9 62 28 9 20 19 39 22 42 16 14 50 88 43 95 -4 5 -2 5 4 2 6 -3
18 9 27 28 9 19 23 35 32 35 12 0 11 -8 -7 -45 -12 -25 -26 -45 -31 -45 -4 0
-6 -4 -2 -9 3 -5 -2 -17 -11 -25 -8 -9 -12 -16 -8 -16 3 0 1 -7 -6 -15 -7 -8
-9 -15 -6 -15 4 0 -2 -10 -14 -22 -11 -12 -20 -28 -20 -35 0 -7 -4 -13 -9 -13
-5 0 -8 -8 -6 -17 2 -10 4 -22 4 -27 1 -4 7 -6 14 -3 7 3 24 -4 38 -14 13 -10
32 -19 43 -19 13 0 16 -5 11 -17 -5 -14 -3 -15 5 -7 9 9 25 7 63 -6 28 -10 55
-16 59 -14 5 3 8 -2 8 -10 0 -8 -4 -18 -10 -21 -5 -3 -10 -2 -10 3 0 5 -6 9
-12 10 -54 7 -69 13 -178 64 -47 23 -93 50 -103 62 -10 12 -15 14 -11 6 7 -13
6 -13 -12 0 -10 8 -22 20 -26 25 -4 6 -8 6 -8 2 0 -8 -14 2 -55 41 -13 12 -27
22 -30 22 -11 0 -105 97 -105 109 0 7 -4 9 -10 6 -5 -3 -10 -2 -10 3 0 5 -13
23 -30 40 -16 18 -30 35 -30 38 0 3 -9 19 -21 35 -11 16 -17 34 -13 41 5 8 11
5 17 -10 6 -12 14 -22 19 -22z"/>
<path d="M2165 4731 c-16 -4 -40 -6 -52 -5 -13 1 -23 -3 -23 -8 0 -5 -4 -6
-10 -3 -5 3 -10 1 -10 -6 0 -6 8 -9 20 -6 11 3 20 2 20 -2 0 -4 15 -8 33 -8
33 -1 85 -11 98 -19 15 -9 19 15 5 29 -8 8 -12 17 -9 21 4 3 2 6 -3 7 -5 0
-16 2 -24 3 -8 2 -28 0 -45 -3z"/>
<path d="M2529 4722 c-1 -9 -1 -20 0 -24 0 -5 -3 -8 -9 -8 -5 0 -10 -4 -10 -9
0 -5 6 -8 13 -7 73 15 87 20 87 30 0 7 3 7 8 1 12 -16 38 -13 39 4 1 11 -7 16
-25 17 -15 1 -44 4 -64 7 -31 4 -38 2 -39 -11z"/>
<path d="M2410 4593 c-18 -15 -30 -22 -26 -15 7 11 4 11 -12 1 -14 -9 -19 -21
-17 -38 2 -14 5 -26 6 -26 3 0 9 -48 10 -77 0 -15 4 -30 10 -33 5 -3 6 0 3 8
-3 8 2 17 11 21 12 4 14 10 5 25 -7 13 -7 22 0 26 6 4 8 11 5 16 -4 5 -2 9 3
9 6 0 8 9 5 20 -3 11 0 20 6 20 6 0 11 10 11 23 0 13 5 28 12 35 21 21 4 13
-32 -15z"/>
<path d="M2000 2152 c-13 -2 -15 -29 -13 -164 2 -119 6 -164 15 -170 7 -4 53
-8 101 -8 86 0 90 1 117 30 30 32 35 70 15 110 -7 14 -11 38 -8 54 4 20 2 27
-6 22 -16 -10 -14 0 5 18 8 9 11 16 5 16 -6 0 -11 5 -11 10 0 15 -30 44 -60
61 -24 13 -130 27 -160 21z m133 -96 c6 -15 -11 -36 -29 -36 -14 0 -23 20 -16
38 6 16 39 15 45 -2z m17 -130 c0 -15 -16 -30 -42 -39 -15 -5 -18 -1 -18 23 0
27 3 30 30 30 19 0 30 -5 30 -14z"/>
<path d="M2383 2149 c-70 -14 -108 -60 -118 -139 -10 -85 28 -154 105 -187 67
-28 133 -4 167 61 17 33 25 114 11 122 -4 3 -6 9 -3 14 13 20 -62 110 -92 110
-6 0 -18 6 -25 13 -8 9 -24 11 -45 6z m67 -124 c19 -57 -11 -135 -52 -135 -45
0 -46 147 -1 164 8 3 11 11 7 17 -5 8 -1 8 14 0 11 -6 26 -27 32 -46z"/>
<path d="M4400 2153 c-23 -5 -18 -329 5 -327 8 1 12 -2 9 -7 -3 -5 14 -9 38
-9 l43 0 -3 77 -2 78 35 -60 c19 -33 35 -64 35 -69 0 -4 7 -6 14 -3 9 4 13 1
10 -7 -3 -9 9 -13 43 -13 l48 -1 -2 116 c-2 64 -3 127 -3 140 0 16 -4 21 -12
15 -7 -4 -5 5 5 20 15 23 15 27 2 27 -8 0 -15 5 -15 10 0 6 -20 10 -45 10 -31
0 -43 -4 -40 -12 9 -25 11 -148 3 -140 -12 12 -45 69 -63 109 -10 22 -24 35
-43 39 -15 3 -31 7 -37 8 -5 1 -17 1 -25 -1z m85 -32 c3 -5 2 -12 -3 -15 -5
-3 -9 1 -9 9 0 17 3 19 12 6z"/>
<path d="M2588 1993 c2 -90 8 -163 14 -170 6 -7 27 -13 48 -13 35 0 37 1 38
35 1 20 -2 34 -6 31 -4 -2 -7 7 -7 20 0 13 3 24 7 24 3 0 4 10 0 22 -9 36 15
12 54 -55 20 -34 41 -65 48 -69 12 -8 96 -11 96 -4 0 3 -4 16 -10 30 -5 14 -6
27 -2 30 4 3 5 32 2 65 -3 34 -3 61 0 61 3 0 5 28 5 62 0 74 -11 87 -70 88
l-40 0 3 -77 c2 -73 1 -77 -14 -58 -9 11 -20 32 -26 48 -5 15 -14 27 -18 27
-4 0 -11 11 -14 25 -4 14 -11 23 -16 20 -6 -3 -10 -1 -10 4 0 6 -19 11 -42 11
l-43 0 3 -157z"/>
<path d="M2925 2139 c4 -6 7 -58 7 -116 -1 -133 10 -162 72 -191 66 -31 118
-29 158 7 l32 28 0 129 c1 145 -3 153 -65 154 l-37 0 3 -116 c1 -89 -1 -119
-12 -130 -20 -20 -46 -17 -61 6 -7 12 -8 20 -2 20 5 0 10 7 10 16 0 9 -5 12
-12 8 -9 -5 -9 -2 1 9 18 22 21 119 3 112 -8 -3 -6 4 4 21 16 23 16 26 -2 39
-22 17 -109 21 -99 4z"/>
<path d="M3300 2143 c-21 -9 -50 -43 -56 -69 -9 -36 20 -78 73 -104 77 -39 92
-50 86 -66 -6 -17 -70 -19 -75 -2 -4 11 -75 19 -91 11 -15 -8 35 -64 76 -83
77 -37 165 -18 186 40 16 47 -9 85 -79 121 -62 32 -90 50 -90 60 0 12 60 21
73 11 13 -11 107 -24 107 -16 0 3 -7 18 -16 34 -30 50 -137 85 -194 63z"/>
<path d="M3744 1985 c0 -91 3 -165 6 -166 3 0 27 -3 53 -5 l48 -5 -2 53 c-2
76 -2 77 32 76 l30 -1 -4 -54 c-5 -61 6 -73 67 -73 l34 0 1 159 c2 179 1 181
-73 181 l-35 0 3 -52 c4 -68 -1 -78 -33 -78 -27 0 -27 2 -27 58 1 40 -3 56
-11 55 -7 -2 -13 2 -13 7 0 6 -17 10 -38 10 l-38 0 0 -165z"/>
<path d="M4066 2025 c3 -146 11 -166 80 -197 64 -28 135 -16 167 27 14 20 18
48 20 150 2 118 -1 130 -25 126 -5 0 -8 4 -8 9 0 6 -17 10 -38 10 l-37 0 2
-117 c3 -121 -3 -143 -39 -143 -13 0 -18 6 -16 18 2 11 -4 27 -12 37 -8 11
-10 16 -3 12 8 -5 11 17 12 79 1 99 -8 113 -70 114 l-35 0 2 -125z"/>
<path d="M4722 2118 c3 -34 19 -62 28 -48 3 5 17 6 31 3 l27 -5 -3 -125 c-3
-103 -1 -123 11 -119 8 3 14 1 14 -4 0 -6 20 -10 45 -10 42 0 44 1 37 23 -4
12 -7 69 -6 127 l1 105 39 -1 c34 -1 40 2 39 20 0 12 -4 31 -9 44 -7 21 -12
22 -132 22 l-124 0 2 -32z"/>
</g>
</svg>
