<?xml version="1.0" standalone="no"?>
<!DOCTYPE svg PUBLIC "-//W3C//DTD SVG 20010904//EN"
 "http://www.w3.org/TR/2001/REC-SVG-20010904/DTD/svg10.dtd">
<svg version="1.0" xmlns="http://www.w3.org/2000/svg"
 width="300.000000pt" height="300.000000pt" viewBox="0 0 300.000000 300.000000"
 preserveAspectRatio="xMidYMid meet">
<metadata>
Created by potrace 1.14, written by Peter Selinger 2001-2017
</metadata>
<g transform="translate(0.000000,300.000000) scale(0.100000,-0.100000)"
fill="#000000" stroke="none">
<path d="M929 2046 c0 -1 -1 -77 -1 -171 l-1 -170 94 -1 c93 -2 94 -1 122 28
15 17 27 36 28 42 5 53 -1 81 -17 93 -17 13 -17 15 -1 42 27 46 22 84 -14 112
-28 21 -43 24 -120 25 -49 0 -89 0 -90 0z m145 -62 c20 -8 21 -53 2 -60 -28
-11 -51 -11 -63 -1 -14 10 -18 49 -6 60 8 9 46 9 67 1z m13 -153 c8 -17 9 -31
2 -43 -9 -17 -18 -20 -54 -20 -32 0 -34 3 -33 46 0 43 1 43 36 42 28 -1 39 -7
49 -25z"/>
<path d="M1277 2011 c-32 -36 -32 -36 -31 -139 1 -102 1 -104 32 -135 29 -28
38 -31 96 -33 61 -1 67 1 96 31 31 32 31 33 32 140 0 107 0 108 -31 138 -27
28 -37 31 -96 33 -63 1 -66 0 -98 -35z m135 -39 c11 -11 14 -174 3 -191 -9
-15 -72 -14 -81 1 -14 22 -11 172 4 190 14 17 56 18 74 0z"/>
<path d="M1587 1876 l2 -171 34 0 35 -1 -3 103 c-1 57 1 103 4 103 3 0 29 -46
56 -102 48 -98 52 -103 83 -104 l32 -1 0 163 c0 90 0 167 0 171 0 5 -15 8 -34
9 l-34 2 3 -90 c2 -49 0 -87 -3 -83 -4 4 -25 43 -47 88 l-41 81 -44 2 -45 1 2
-171z"/>
<path d="M1916 2042 c-2 -2 -1 -16 3 -30 4 -15 6 -77 5 -139 -2 -111 -1 -112
28 -140 25 -24 37 -28 92 -29 58 -1 67 2 95 28 l31 29 0 135 c0 73 0 137 0
141 0 4 -17 8 -39 9 l-39 1 2 -117 c3 -144 -2 -160 -48 -160 -45 0 -48 11 -44
158 2 62 1 113 -2 113 -17 4 -81 5 -84 1z"/>
<path d="M2275 2014 c-60 -58 -34 -144 49 -159 45 -9 60 -27 52 -61 -7 -26 -8
-27 -75 -22 l-68 5 14 -37 15 -37 68 1 c60 2 72 5 96 29 40 40 42 111 6 150
-14 15 -34 27 -43 27 -28 0 -69 22 -69 36 0 26 30 43 69 40 21 -2 43 -6 49
-10 14 -8 15 18 3 49 -7 17 -18 20 -71 20 -57 1 -65 -2 -95 -31z"/>
<path d="M300 1932 c-20 -6 -34 -31 -36 -61 0 -13 -8 -28 -18 -33 -9 -5 -16
-18 -16 -28 0 -18 -7 -20 -84 -20 -89 0 -106 -8 -109 -50 -1 -12 -9 -26 -19
-31 -16 -9 -18 -27 -18 -186 0 -153 2 -179 17 -195 15 -16 18 -40 18 -141 l0
-122 318 0 c313 -1 317 -1 318 20 1 11 1 53 1 93 l0 73 38 15 c50 20 59 42 64
149 2 50 6 97 8 105 2 10 -5 15 -22 15 -20 0 -24 -4 -21 -20 8 -50 8 -153 0
-182 -9 -27 -39 -50 -59 -44 -12 3 -4 27 12 39 16 12 18 32 18 187 0 150 -2
176 -17 191 -9 9 -19 26 -20 38 -5 35 -32 46 -115 46 -74 0 -78 1 -84 24 -3
14 -12 27 -19 30 -8 3 -12 14 -10 25 7 36 -26 63 -81 66 -27 1 -56 0 -64 -3z"/>
<path d="M925 1500 l0 -170 40 0 41 0 -1 77 0 78 35 1 c56 1 57 -1 54 -81 l-4
-75 43 0 42 0 0 170 0 170 -42 0 -43 0 3 -55 c2 -30 1 -58 -2 -63 -3 -5 -24
-8 -46 -8 l-40 2 0 62 0 62 -40 0 -40 0 0 -170z"/>
<path d="M1260 1526 c5 -142 5 -144 33 -170 24 -22 37 -26 91 -26 56 0 66 3
93 29 l31 29 0 130 c0 71 3 135 6 141 5 7 -9 11 -43 11 -49 0 -50 0 -43 -27 4
-16 7 -73 6 -127 -1 -84 -4 -101 -19 -113 -24 -17 -49 -17 -64 1 -12 15 -17
238 -6 256 4 6 -14 10 -42 10 l-48 0 5 -144z"/>
<path d="M1595 1500 l0 -170 36 0 37 0 -3 112 -2 112 56 -112 c54 -108 57
-112 88 -112 l33 0 0 63 c1 34 2 110 3 170 l2 107 -37 0 -37 0 4 -92 3 -93
-46 93 -47 92 -45 0 -45 0 0 -170z"/>
<path d="M1906 1653 c-2 -10 -8 -29 -11 -42 -5 -16 -4 -21 4 -17 6 4 26 9 46
11 30 4 35 2 39 -18 6 -27 2 -216 -4 -237 -4 -12 5 -16 40 -18 l45 -3 0 137
c0 152 0 153 66 134 26 -8 30 -7 25 6 -3 9 -9 27 -12 40 -6 24 -8 24 -119 24
-100 0 -114 -2 -119 -17z"/>
<path d="M934 1263 c-8 -18 -14 -34 -14 -36 0 -2 23 -2 51 1 l50 5 -3 -140 -3
-139 45 1 c34 1 44 5 41 16 -3 8 -6 70 -7 138 l-3 123 50 -4 c41 -4 49 -3 44
9 -3 8 -8 25 -11 37 -5 21 -10 22 -116 22 l-111 0 -13 -33z"/>
<path d="M1236 1126 l2 -170 39 -2 40 -1 -1 65 c-1 53 2 65 15 67 26 4 35 -7
56 -69 l19 -60 43 -2 c48 -2 47 -8 10 89 l-22 58 26 27 c37 38 37 95 0 137
-26 29 -28 30 -127 31 l-101 0 1 -170z m162 100 c16 -10 15 -52 -2 -69 -8 -7
-29 -13 -48 -12 -31 2 -33 3 -34 41 0 21 1 42 3 47 5 8 64 4 81 -7z"/>
<path d="M1610 1277 c0 -24 -67 -273 -80 -297 -12 -23 -5 -27 39 -26 30 2 35
5 38 31 6 49 9 52 58 53 39 1 47 -2 55 -22 4 -12 8 -31 7 -42 -2 -16 5 -19 43
-19 35 0 44 3 41 15 -2 8 -21 78 -42 155 -21 77 -38 146 -36 155 2 12 -10 15
-60 16 -56 1 -63 -1 -63 -19z m75 -113 c7 -33 13 -60 12 -60 -3 -3 -41 -6 -53
-5 -8 1 -7 20 4 66 9 35 17 63 20 61 2 -2 9 -30 17 -62z"/>
<path d="M1895 1260 l-35 -36 0 -100 0 -100 35 -34 c32 -31 42 -35 96 -36 63
0 72 5 83 48 l6 27 -53 -6 c-75 -8 -87 7 -87 102 0 79 12 104 53 106 28 2 27
2 60 -6 l27 -7 -14 38 -13 39 -61 0 c-58 1 -64 -1 -97 -35z"/>
<path d="M2139 1290 c-1 -3 -1 -9 0 -14 5 -23 0 -296 -5 -309 -4 -11 5 -14 38
-13 l43 2 1 67 c1 50 6 73 19 87 10 11 22 17 25 13 4 -5 18 -45 31 -89 l24
-81 40 2 c22 2 43 4 47 4 3 1 -2 18 -12 39 -10 20 -30 72 -45 115 l-28 79 52
49 c29 27 51 50 49 50 -2 1 -24 3 -50 4 -30 1 -48 -2 -48 -9 0 -12 -91 -106
-101 -106 -3 0 -4 27 -3 59 l4 59 -40 -1 c-22 -1 -41 -4 -41 -7z"/>
<path d="M2464 1125 l1 -171 94 1 95 0 13 34 c8 18 12 35 10 37 -1 2 -25 0
-53 -4 -76 -12 -84 -8 -84 45 l0 46 39 -6 c34 -4 40 -2 43 17 8 45 0 54 -43
49 l-39 -6 0 36 0 36 58 -3 c32 -1 64 -6 71 -10 8 -5 7 4 -3 29 -9 21 -16 38
-16 40 0 1 -42 1 -93 1 l-93 -1 0 -170z"/>
<path d="M2734 1124 l0 -171 40 1 40 2 -3 62 c-2 49 1 63 13 68 24 9 41 -10
56 -66 8 -28 19 -54 24 -58 19 -12 87 -10 82 2 -2 6 -16 39 -30 74 l-25 62 27
27 c38 38 39 95 1 137 -27 30 -29 31 -126 32 l-99 0 0 -172z m167 95 c22 -35
-12 -80 -58 -75 -26 3 -28 7 -31 49 l-3 46 42 -3 c22 -2 45 -10 50 -17z"/>
</g>
</svg>
